<svg width="512" height="512" viewBox="0 0 512 512" fill="none" xmlns="http://www.w3.org/2000/svg">
<rect width="512" height="512" rx="128" fill="url(#paint0_linear_135_95)"/>
<path d="M431.393 241.681H223.222C228.756 229.063 241.376 220.213 256.007 220.213C265.881 220.213 274.817 224.228 281.289 230.7L301.574 210.46C289.893 198.738 273.793 191.532 256.007 191.532C225.396 191.532 199.705 213 193.19 241.681H165.614C172.496 198.004 210.405 164.447 256.014 164.447C281.254 164.447 304.122 174.729 320.722 191.285L341.007 171.045C319.205 149.245 289.166 135.766 256.014 135.766C194.545 135.766 143.734 182.104 136.683 241.681H109.39C116.638 167.15 179.618 108.681 256 108.681C296.612 108.681 333.448 125.194 360.128 151.864L380.413 131.624C348.531 99.7461 304.524 80 256 80C163.8 80 87.9121 151.292 80.6141 241.681C80.2047 246.395 80 251.187 80 256.021C80 260.855 80.2047 265.647 80.6141 270.361H288.742C283.251 282.98 270.631 291.787 256 291.787C246.168 291.787 237.19 287.772 230.718 281.3L210.433 301.583C222.114 313.22 238.214 320.475 256 320.475C286.653 320.475 312.302 299.007 318.824 270.361H346.4C339.518 313.996 301.609 347.553 256 347.553C230.76 347.553 207.892 337.271 191.292 320.715L171.007 340.955C192.809 362.755 222.848 376.234 256 376.234C317.426 376.234 368.237 329.889 375.331 270.354H402.624C395.369 344.843 332.389 403.312 256 403.312C215.388 403.312 178.552 386.799 151.872 360.129L131.587 380.412C163.469 412.247 207.483 432 256 432C348.2 432 424.095 360.708 431.386 270.361C431.795 265.647 432 260.855 432 256.021C432 251.187 431.795 246.395 431.386 241.681H431.393Z" fill="#FFEA00"/>
<defs>
<linearGradient id="paint0_linear_135_95" x1="0" y1="0" x2="256" y2="512" gradientUnits="userSpaceOnUse">
<stop stop-color="#050317"/>
<stop offset="1" stop-color="#020109"/>
</linearGradient>
</defs>
</svg>
