<svg viewBox="0 0 1554 272" fill="none" xmlns="http://www.w3.org/2000/svg">
    <g>
        <path d="M271.525 124.933H110.67C114.945 115.182 124.697 108.344 136.003 108.344C143.633 108.344 150.537 111.447 155.538 116.448L171.213 100.808C162.187 91.75 149.746 86.1823 136.003 86.1823C112.349 86.1823 92.4973 102.771 87.4634 124.933H66.1552C71.4727 91.1829 100.765 65.253 136.008 65.253C155.511 65.253 173.182 73.1983 186.009 85.9915L201.683 70.3517C184.837 53.5068 161.625 43.0912 136.008 43.0912C88.5106 43.0912 49.2483 78.8969 43.7999 124.933H22.7098C28.3109 67.3415 76.9757 22.1618 135.997 22.1618C167.379 22.1618 195.842 34.9223 216.458 55.5299L232.132 39.8901C207.497 15.258 173.492 0 135.997 0C64.7536 0 6.11377 55.0882 0.474485 124.933C0.158162 128.575 0 132.278 0 136.014C0 139.749 0.158162 143.452 0.474485 147.095H161.298C157.055 156.845 147.303 163.65 135.997 163.65C128.4 163.65 121.463 160.548 116.462 155.547L100.787 171.219C109.813 180.212 122.254 185.818 135.997 185.818C159.683 185.818 179.503 169.229 184.542 147.095H205.85C200.533 180.812 171.24 206.742 135.997 206.742C116.494 206.742 98.8238 198.796 85.9963 186.003L70.322 201.643C87.1689 218.488 110.381 228.903 135.997 228.903C183.462 228.903 222.724 193.092 228.206 147.089H249.296C243.689 204.648 195.024 249.827 135.997 249.827C104.616 249.827 76.1521 237.067 55.5366 216.459L39.8622 232.132C64.4973 256.731 98.5075 271.995 135.997 271.995C207.241 271.995 265.886 216.906 271.52 147.095C271.836 143.452 271.995 139.749 271.995 136.014C271.995 132.278 271.836 128.575 271.52 124.933H271.525Z" fill="#FFEA00"/>
        <path d="M450.142 89.4201L455.822 59.8817C444.84 51.929 427.799 44.355 407.349 44.355C375.16 44.355 352.438 61.0177 352.438 89.0414C352.438 145.467 429.692 128.426 429.692 160.615C429.692 171.219 421.361 178.793 404.32 178.793C391.822 178.793 375.917 173.491 363.42 165.16C363.42 165.16 352.059 181.444 346 189.775C369.479 204.923 388.793 207.953 405.456 207.953C441.811 207.953 464.911 189.396 464.911 159.858C464.911 104.568 385.763 118.959 385.763 89.4201C385.763 78.0592 397.124 73.8935 407.349 73.8935C419.467 73.8935 433.479 77.6805 450.142 89.4201Z" fill="white"/>
        <path d="M693.619 133.728H805.714C805.714 133.728 806.471 125.018 806.471 117.822C806.471 71.6213 775.039 44.7337 735.276 44.7337C692.104 44.7337 659.536 77.3018 659.536 126.533C659.536 176.521 690.59 208.331 742.85 208.331C764.436 208.331 780.72 203.787 801.17 189.396L783.749 163.645C776.933 169.325 764.815 178.793 742.85 178.793C715.584 178.793 693.619 163.645 693.619 133.728ZM736.033 72.7574C756.104 72.7574 772.767 84.1183 775.039 106.84H695.513C701.572 84.1183 717.477 72.7574 736.033 72.7574Z" fill="white"/>
        <path d="M909.683 208.331C928.996 208.331 948.31 203.408 969.138 190.154L953.612 162.509C951.34 164.402 934.298 178.793 909.683 178.793C881.28 178.793 860.073 159.479 860.073 126.154C860.073 92.8284 882.038 74.6509 910.062 74.6509C936.57 74.6509 956.641 91.3136 956.641 91.3136L963.837 61.0177C960.807 59.1243 939.6 44.355 909.683 44.355C861.588 44.355 826.369 75.0296 826.369 126.533C826.369 177.278 861.588 208.331 909.683 208.331Z" fill="white"/>
        <path d="M1081.32 207.574L1088.13 178.414C1052.92 181.065 1045.72 176.521 1045.72 146.982V75.787H1085.1V47.3846H1045.72V8L1011.26 15.574V47.3846H991.188L983.614 75.787H1011.26V146.225C1011.26 189.018 1024.51 207.574 1063.9 207.574H1081.32Z" fill="white"/>
        <path d="M1107.92 126.911C1107.92 172.734 1132.91 207.574 1180.63 207.574C1204.11 207.574 1220.39 194.32 1229.1 178.414V205.68H1262.8V70.8639C1257.5 66.6982 1232.89 45.1124 1188.58 45.1124C1136.7 45.1124 1107.92 81.4675 1107.92 126.911ZM1142.76 128.047C1142.76 99.645 1158.66 75.0296 1190.09 75.0296C1213.19 75.0296 1225.31 82.6035 1229.1 85.6331V113.278C1229.1 153.041 1211.68 177.278 1184.41 177.278C1154.87 177.278 1142.76 156.071 1142.76 128.047Z" fill="white"/>
        <path d="M1380.21 207.574L1387.03 178.414C1351.81 181.065 1344.61 176.521 1344.61 146.982V75.787H1384V47.3846H1344.61V8L1310.15 15.574V47.3846H1290.08L1282.51 75.787H1310.15V146.225C1310.15 189.018 1323.41 207.574 1362.79 207.574H1380.21Z" fill="white"/>
        <path d="M1440.89 133.728H1552.99C1552.99 133.728 1553.74 125.018 1553.74 117.822C1553.74 71.6213 1522.31 44.7337 1482.55 44.7337C1439.38 44.7337 1406.81 77.3018 1406.81 126.533C1406.81 176.521 1437.86 208.331 1490.12 208.331C1511.71 208.331 1527.99 203.787 1548.44 189.396L1531.02 163.645C1524.21 169.325 1512.09 178.793 1490.12 178.793C1462.86 178.793 1440.89 163.645 1440.89 133.728ZM1483.31 72.7574C1503.38 72.7574 1520.04 84.1183 1522.31 106.84H1442.79C1448.85 84.1183 1464.75 72.7574 1483.31 72.7574Z" fill="white"/>
        <path d="M567.866 44.3551C544.387 44.3551 527.346 57.2308 519.014 73.5148V46.2485H485.31V155.124V264L519.014 256.805V194.698C519.014 194.698 540.979 206.817 565.215 206.817C611.416 206.817 639.44 170.462 639.44 125.018C639.44 79.1953 615.582 44.3551 567.866 44.3551ZM604.979 123.882C604.979 152.284 589.831 176.899 560.671 176.899C537.949 176.899 522.801 165.16 519.014 162.13V138.651C519.014 98.8876 536.434 74.6509 563.322 74.6509C593.239 74.6509 604.979 95.858 604.979 123.882Z" fill="white"/>
    </g>
</svg>