<svg height="30" viewBox="0 0 1478 315" fill="none" xmlns="http://www.w3.org/2000/svg">
    <g clip-path="url(#clip0_15_3)">
        <path d="M127.458 99.6492L134.411 63.4974C120.97 53.7642 100.113 44.4945 75.0845 44.4945C35.6883 44.4945 7.87924 64.8879 7.87924 99.1857C7.87924 168.245 102.43 147.388 102.43 186.784C102.43 199.762 92.2335 209.032 71.3766 209.032C56.0816 209.032 36.6153 202.543 21.3203 192.346C21.3203 192.346 7.41576 212.276 0 222.473C28.7361 241.012 52.3738 244.72 72.7671 244.72C117.262 244.72 145.534 222.009 145.534 185.857C145.534 118.189 48.6659 135.801 48.6659 99.6492C48.6659 85.7447 62.5704 80.6463 75.0845 80.6463C89.916 80.6463 107.065 85.2812 127.458 99.6492Z"
              fill="black"/>
        <path d="M271.54 45.885C242.804 45.885 221.947 61.6435 211.75 81.5733V48.2024H170.5V181.454V314.706L211.75 305.9V229.888C211.75 229.888 238.632 244.72 268.295 244.72C324.84 244.72 359.138 200.225 359.138 144.607C359.138 88.5256 329.939 45.885 271.54 45.885ZM316.961 143.217C316.961 177.978 298.422 208.105 262.733 208.105C234.924 208.105 216.385 193.737 211.75 190.029V161.293C211.75 112.627 233.07 82.9638 265.978 82.9638C302.593 82.9638 316.961 108.919 316.961 143.217Z"
              fill="black"/>
        <path d="M425.447 153.877H562.639C562.639 153.877 563.566 143.217 563.566 134.411C563.566 77.8654 525.097 44.958 476.431 44.958C423.593 44.958 383.734 84.8177 383.734 145.071C383.734 206.251 421.74 245.183 485.7 245.183C512.119 245.183 532.049 239.622 557.077 222.009L535.757 190.492C527.414 197.444 512.583 209.032 485.7 209.032C452.329 209.032 425.447 190.492 425.447 153.877ZM477.358 79.2559C501.922 79.2559 522.316 93.1604 525.097 120.97H427.765C435.181 93.1604 454.647 79.2559 477.358 79.2559Z"
              fill="black"/>
        <path d="M689.885 245.183C713.523 245.183 737.161 239.158 762.652 222.936L743.65 189.102C740.869 191.419 720.012 209.032 689.885 209.032C655.124 209.032 629.169 185.394 629.169 144.607C629.169 103.821 656.051 81.5733 690.349 81.5733C722.793 81.5733 747.357 101.967 747.357 101.967L756.164 64.8879C752.456 62.5704 726.501 44.4945 689.885 44.4945C631.023 44.4945 587.919 82.0368 587.919 145.071C587.919 207.178 631.023 245.183 689.885 245.183Z"
              fill="black"/>
        <path d="M899.948 244.256L908.29 208.568C865.186 211.813 856.38 206.251 856.38 170.099V82.9638H904.583V48.2024H856.38V0L814.203 9.26969V48.2024H789.638L780.369 82.9638H814.203V169.172C814.203 221.546 830.425 244.256 878.627 244.256H899.948Z"
              fill="black"/>
        <path d="M932.501 145.534C932.501 201.616 963.091 244.256 1021.49 244.256C1050.23 244.256 1070.16 228.034 1080.82 208.568V241.939H1122.07V76.9385C1115.58 71.8401 1085.45 45.4215 1031.22 45.4215C967.726 45.4215 932.501 89.9161 932.501 145.534ZM975.142 146.925C975.142 112.163 994.608 82.0368 1033.08 82.0368C1061.35 82.0368 1076.18 91.3065 1080.82 95.0144V128.849C1080.82 177.515 1059.5 207.178 1026.12 207.178C989.973 207.178 975.142 181.223 975.142 146.925Z"
              fill="black"/>
        <path d="M1265.76 244.256L1274.1 208.568C1231 211.813 1222.19 206.251 1222.19 170.099V82.9638H1270.4V48.2024H1222.19V0L1180.02 9.26969V48.2024H1155.45L1146.18 82.9638H1180.02V169.172C1180.02 221.546 1196.24 244.256 1244.44 244.256H1265.76Z"
              fill="black"/>
        <path d="M1340.03 153.877H1477.22C1477.22 153.877 1478.15 143.217 1478.15 134.411C1478.15 77.8654 1439.68 44.958 1391.01 44.958C1338.17 44.958 1298.31 84.8177 1298.31 145.071C1298.31 206.251 1336.32 245.183 1400.28 245.183C1426.7 245.183 1446.63 239.622 1471.66 222.009L1450.34 190.492C1441.99 197.444 1427.16 209.032 1400.28 209.032C1366.91 209.032 1340.03 190.492 1340.03 153.877ZM1391.94 79.2559C1416.5 79.2559 1436.9 93.1604 1439.68 120.97H1342.35C1349.76 93.1604 1369.23 79.2559 1391.94 79.2559Z"
              fill="black"/>
        <path d="M270.54 45.885C241.804 45.885 220.947 61.6435 210.75 81.5733V48.2024H169.5V181.454V314.706L210.75 305.9V229.888C210.75 229.888 237.632 244.72 267.295 244.72C323.84 244.72 358.138 200.225 358.138 144.607C358.138 88.5256 328.939 45.885 270.54 45.885ZM315.961 143.217C315.961 177.978 297.422 208.105 261.733 208.105C233.924 208.105 215.385 193.737 210.75 190.029V161.293C210.75 112.627 232.07 82.9638 264.978 82.9638C301.593 82.9638 315.961 108.919 315.961 143.217Z"
              fill="black"/>
        <path d="M271.54 45.885C242.804 45.885 221.947 61.6435 211.75 81.5733V48.2024H170.5V181.454V314.706L211.75 305.9V229.888C211.75 229.888 238.632 244.72 268.295 244.72C324.84 244.72 359.138 200.225 359.138 144.607C359.138 88.5256 329.939 45.885 271.54 45.885ZM316.961 143.217C316.961 177.978 298.422 208.105 262.733 208.105C234.924 208.105 216.385 193.737 211.75 190.029V161.293C211.75 112.627 233.07 82.9638 265.978 82.9638C302.593 82.9638 316.961 108.919 316.961 143.217Z"
              fill="black"/>
    </g>
    <defs>
        <clipPath id="clip0_15_3">
            <rect width="1478" height="315" fill="black"/>
        </clipPath>
    </defs>
</svg>
